<?xml version="1.0" encoding="utf-8"?>
<!-- Generator: Adobe Illustrator 16.0.0, SVG Export Plug-In . SVG Version: 6.00 Build 0)  -->
<!DOCTYPE svg PUBLIC "-//W3C//DTD SVG 1.1//EN" "http://www.w3.org/Graphics/SVG/1.1/DTD/svg11.dtd">
<svg version="1.1" id="Layer_1" xmlns="http://www.w3.org/2000/svg" xmlns:xlink="http://www.w3.org/1999/xlink" x="0px" y="0px"
	 width="18px" height="18px" viewBox="0 0 18 18" enable-background="new 0 0 18 18" xml:space="preserve">
<g>
	<path fill="#727272" d="M9,18c-4.969,0-9-4.031-9-9s4.031-9,9-9s9,4.031,9,9S13.969,18,9,18z M9,2.625
		C5.484,2.625,2.625,5.484,2.625,9S5.484,15.375,9,15.375S15.375,12.516,15.375,9S12.516,2.625,9,2.625z M10.5,10.125
		c0,0.211-0.164,0.375-0.375,0.375h-3.75C6.164,10.5,6,10.336,6,10.125v-0.75C6,9.164,6.164,9,6.375,9H9V4.875
		C9,4.664,9.164,4.5,9.375,4.5h0.75c0.211,0,0.375,0.164,0.375,0.375V10.125z"/>
</g>
</svg>
