<?xml version="1.0" encoding="utf-8"?>
<!-- Generator: Adobe Illustrator 16.0.0, SVG Export Plug-In . SVG Version: 6.00 Build 0)  -->
<!DOCTYPE svg PUBLIC "-//W3C//DTD SVG 1.1//EN" "http://www.w3.org/Graphics/SVG/1.1/DTD/svg11.dtd">
<svg version="1.1" id="Layer_1" xmlns="http://www.w3.org/2000/svg" xmlns:xlink="http://www.w3.org/1999/xlink" x="0px" y="0px"
	 width="20px" height="20.318px" viewBox="0 0 20 20.318" enable-background="new 0 0 20 20.318" xml:space="preserve">
<g>
	<path fill-rule="evenodd" fill="#ffffff" clip-rule="evenodd" d="M6.984,0C6.313,0.735,5.641,1.471,4.938,2.239
		c1.438,1.385,2.877,2.77,4.324,4.162C8.199,7.385,7.298,8.218,6.42,9.029C5.163,7.8,3.723,6.391,2.188,4.889
		C1.469,5.644,0.18,6.994,0.18,6.994L0,7.171C0,7.171,0,2.31,0,0C2.328,0,4.656,0,6.984,0z"/>
	<path fill-rule="evenodd" fill="#ffffff" clip-rule="evenodd" d="M20,0c0,2.296,0,4.591,0,6.959c-0.669-0.745-1.286-1.433-1.854-2.064
		c-1.68,1.613-3.133,3.01-4.524,4.347c-0.958-0.908-1.852-1.755-2.798-2.651c1.465-1.403,2.908-2.786,4.378-4.194
		c-0.814-0.893-1.5-1.644-2.187-2.396C15.344,0,17.672,0,20,0z"/>
	<path fill-rule="evenodd" fill="#ffffff" clip-rule="evenodd" d="M0,20.318c0-2.296,0-4.591,0-6.935c0.663,0.726,1.286,1.406,1.867,2.043
		c1.666-1.615,3.113-3.017,4.5-4.36c0.971,0.918,1.864,1.764,2.818,2.667c-1.468,1.401-2.914,2.781-4.388,4.188
		c0.815,0.894,1.501,1.646,2.187,2.397C4.656,20.318,2.328,20.318,0,20.318z"/>
	<path fill-rule="evenodd" fill="#ffffff" clip-rule="evenodd" d="M13.016,20.318c0.673-0.734,1.346-1.469,2.051-2.238
		c-1.439-1.384-2.878-2.768-4.331-4.166c1.069-0.978,1.974-1.806,2.865-2.62c1.236,1.226,2.666,2.645,4.216,4.181
		c0.714-0.799,1.959-2.191,1.959-2.191L20,13.028c0,0,0,4.981,0,7.29C17.672,20.318,15.344,20.318,13.016,20.318z"/>
</g>
</svg>
