<?xml version="1.0" encoding="utf-8"?>
<!-- Generator: Adobe Illustrator 16.0.0, SVG Export Plug-In . SVG Version: 6.00 Build 0)  -->
<!DOCTYPE svg PUBLIC "-//W3C//DTD SVG 1.1//EN" "http://www.w3.org/Graphics/SVG/1.1/DTD/svg11.dtd">
<svg version="1.1" id="Layer_1" xmlns="http://www.w3.org/2000/svg" xmlns:xlink="http://www.w3.org/1999/xlink" x="0px" y="0px"
	 width="26px" height="22.554px" viewBox="0 0 26 22.554" enable-background="new 0 0 26 22.554" xml:space="preserve">
<path fill-rule="evenodd" clip-rule="evenodd" d="M25.564,20.203c-1.095-0.604-2.76-1.792-5.931-1.354
	c-0.007,0.001-0.014,0.003-0.021,0.004c1.822-2.002,2.942-4.655,2.942-7.576C22.554,5.049,17.505,0,11.277,0S0,5.049,0,11.277
	c0,6.228,5.049,11.276,11.277,11.276c1.585,0,3.092-0.33,4.46-0.92c-0.021,0.054-0.032,0.087-0.032,0.087s2.272-1.213,4.72-1.213
	c2.448,0,4.025,0.949,4.502,1.213C25.405,21.985,26.659,20.806,25.564,20.203z M16.959,6.974c1.348,0,2.441,1.092,2.441,2.44
	s-1.093,2.441-2.441,2.441s-2.441-1.093-2.441-2.441S15.611,6.974,16.959,6.974z M11.342,2.818c1.348,0,2.441,1.093,2.441,2.44
	c0,1.349-1.093,2.441-2.441,2.441S8.901,6.607,8.901,5.259C8.901,3.911,9.994,2.818,11.342,2.818z M3.221,9.414
	c0-1.349,1.092-2.44,2.44-2.44s2.441,1.092,2.441,2.44s-1.093,2.441-2.441,2.441S3.221,10.763,3.221,9.414z M7.778,18.422
	c-1.348,0-2.441-1.092-2.441-2.441c0-1.348,1.093-2.439,2.441-2.439c1.348,0,2.44,1.092,2.44,2.439
	C10.219,17.33,9.126,18.422,7.778,18.422z M11.277,12.267c-0.514,0-0.931-0.417-0.931-0.932s0.417-0.931,0.931-0.931
	c0.515,0,0.932,0.416,0.932,0.931S11.792,12.267,11.277,12.267z M12.34,15.98c0-1.348,1.092-2.439,2.44-2.439
	s2.441,1.092,2.441,2.439c0,1.35-1.093,2.441-2.441,2.441S12.34,17.33,12.34,15.98z"/>
</svg>
